<?xml version="1.0" encoding="UTF-8" standalone="no"?>
<svg
   xmlns:dc="http://purl.org/dc/elements/1.1/"
   xmlns:cc="http://creativecommons.org/ns#"
   xmlns:rdf="http://www.w3.org/1999/02/22-rdf-syntax-ns#"
   xmlns:svg="http://www.w3.org/2000/svg"
   xmlns="http://www.w3.org/2000/svg"
   xmlns:sodipodi="http://sodipodi.sourceforge.net/DTD/sodipodi-0.dtd"
   xmlns:inkscape="http://www.inkscape.org/namespaces/inkscape"
   inkscape:version="1.0rc1 (09960d6, 2020-04-09)"
   sodipodi:docname="logo_1_4.svg"
   id="svg11"
   version="1.1"
   viewBox="0 0 1920 1080"
   height="15in"
   width="26.6667in">
  <metadata
     id="metadata17">
    <rdf:RDF>
      <cc:Work
         rdf:about="">
        <dc:format>image/svg+xml</dc:format>
        <dc:type
           rdf:resource="http://purl.org/dc/dcmitype/StillImage" />
        <dc:title></dc:title>
      </cc:Work>
    </rdf:RDF>
  </metadata>
  <defs
     id="defs15" />
  <sodipodi:namedview
     inkscape:current-layer="svg11"
     inkscape:window-maximized="0"
     inkscape:window-y="23"
     inkscape:window-x="107"
     inkscape:cy="543.6722"
     inkscape:cx="888.22707"
     inkscape:zoom="0.25274863"
     showgrid="false"
     id="namedview13"
     inkscape:window-height="891"
     inkscape:window-width="1388"
     inkscape:pageshadow="2"
     inkscape:pageopacity="0"
     guidetolerance="10"
     gridtolerance="10"
     objecttolerance="10"
     borderopacity="1"
     bordercolor="#666666"
     pagecolor="#ffffff"
     inkscape:document-rotation="0" />
  <path
     transform="matrix(0.75,0,0,0.75,-0.00119019,0)"
     inkscape:connector-curvature="0"
     id="path19"
     d="m 351.00685,929.93012 c -24.34135,-5.3527 -59.03279,-22.84016 -76.65055,-38.63843 -38.57319,-34.58952 -61.13229,-93.151 -57.61915,-149.57433 1.71015,-27.46611 6.6873,-46.71807 18.02312,-69.71466 22.25577,-45.14952 65.18692,-79.30136 116.86878,-92.96942 24.50585,-6.48094 66.18469,-6.99589 91.09129,-1.12543 35.94101,8.47124 74.96389,33.55619 93.01492,59.79249 l 7.40869,10.76813 -21.70626,16.74745 c -11.93844,9.21109 -27.15027,20.98976 -33.80408,26.17481 -6.65379,5.18506 -12.93926,9.42737 -13.96769,9.42737 -1.02843,0 -3.83794,-3.00367 -6.24336,-6.67481 -7.54173,-11.51013 -19.17454,-20.87339 -35.75914,-28.7826 -13.63773,-6.50385 -18.97178,-7.65793 -35.94177,-7.77634 -16.94035,-0.11821 -22.03056,0.8934 -33.95841,6.74872 -25.78675,12.65858 -42.57046,38.30708 -47.51179,72.60648 -6.63636,46.0652 12.13389,88.26612 46.86145,105.358 10.4462,5.14131 15.77051,6.00577 36.99007,6.00577 22.67429,0 26.16096,-0.66051 40.89926,-7.74791 15.84959,-7.62178 37.18115,-23.90798 37.18115,-28.38702 0,-1.27306 -13.72622,-2.28559 -30.98429,-2.28559 H 414.2148 v -33.46303 -33.46303 h 71.88355 71.88355 v 94.19224 94.19224 h -39.65989 -39.65989 v -14.87246 c 0,-15.00894 -1.86384,-17.86867 -7.34305,-11.26661 -4.66589,5.62204 -23.70431,16.07483 -39.25331,21.55148 -19.19957,6.76246 -57.86196,8.27754 -81.05891,3.17649 z"
     style="fill:#ffffff;stroke-width:2.47874" />
  <path
     transform="matrix(0.75,0,0,0.75,-0.00119019,0)"
     inkscape:connector-curvature="0"
     id="path21"
     d="m 351.00685,929.93012 c -24.34135,-5.3527 -59.03279,-22.84016 -76.65055,-38.63843 -38.57319,-34.58952 -61.13229,-93.151 -57.61915,-149.57433 1.71015,-27.46611 6.6873,-46.71807 18.02312,-69.71466 22.35286,-45.34648 64.96147,-79.24174 116.86878,-92.96942 24.50585,-6.48094 66.18469,-6.99589 91.09129,-1.12543 35.94966,8.47328 74.96387,33.55616 93.02525,59.8075 l 7.41901,10.78314 -31.63157,24.46521 c -17.39733,13.45585 -33.03989,25.30228 -34.7612,26.32539 -2.02446,1.20329 -7.56381,-2.99148 -15.68623,-11.87872 -8.18637,-8.95719 -18.19265,-16.51353 -28.75019,-21.71099 -14.08382,-6.93344 -18.82194,-7.99045 -36.36737,-8.11308 -17.21127,-0.12029 -22.23421,0.87047 -34.2048,6.74677 -25.78675,12.65858 -42.57046,38.30708 -47.51179,72.60648 -6.59148,45.75364 12.58802,88.47139 47.4267,105.63163 9.81565,4.83481 15.52581,5.73214 36.47694,5.73214 22.91896,0 26.08128,-0.61133 40.89926,-7.90667 16.06583,-7.90969 37.12903,-23.92351 37.12903,-28.22826 0,-1.27306 -13.72622,-2.28559 -30.98429,-2.28559 H 414.2148 v -33.46303 -33.46303 h 71.88355 71.88355 v 94.19224 94.19224 h -39.65989 -39.65989 v -14.87246 c 0,-15.00894 -1.86384,-17.86867 -7.34305,-11.26661 -4.66589,5.62204 -23.70431,16.07483 -39.25331,21.55148 -19.19957,6.76246 -57.86196,8.27754 -81.05891,3.17649 z"
     style="fill:#ffffff;stroke-width:2.47874" />
  <path
     transform="matrix(0.75,0,0,0.75,-0.00119019,0)"
     inkscape:connector-curvature="0"
     id="path23"
     d="m 351.00685,930.00976 c -23.87217,-5.13997 -58.85942,-22.82551 -76.65055,-38.74573 -56.64404,-50.68737 -74.68446,-146.08136 -40.98122,-216.70015 22.33954,-46.8083 65.17442,-81.5082 117.77559,-95.40825 25.00027,-6.60641 66.43887,-7.17108 91.56967,-1.24778 35.92914,8.46844 74.96392,33.55624 93.00081,59.77198 l 7.39456,10.74762 -10.5378,8.3902 c -16.68209,13.28229 -52.36789,40.4469 -55.80608,42.48051 -2.02005,1.19482 -7.58146,-3.01988 -15.68623,-11.88779 -8.19734,-8.96919 -18.19237,-16.51339 -28.79014,-21.73065 -14.32734,-7.05333 -18.59772,-7.98161 -36.36736,-7.90541 -24.20855,0.10381 -39.17735,6.20057 -55.65376,22.66764 -26.14837,26.13353 -34.88291,76.13359 -20.16954,115.45859 6.45393,17.24969 24.00253,37.01125 40.55031,45.66392 11.23609,5.87524 15.44909,6.62521 37.44786,6.66616 21.57761,0.0402 26.55283,-0.78626 38.42052,-6.38192 16.31193,-7.69117 40.3992,-26.28557 38.34858,-29.60356 -0.80301,-1.29929 -14.7794,-2.36234 -31.05864,-2.36234 H 414.2148 v -33.46303 -33.46303 h 71.88355 71.88355 v 94.19224 94.19224 h -39.5416 -39.54163 l -0.73795,-14.71523 -0.73797,-14.71526 -14.70589,9.68323 c -8.08825,5.32576 -21.47346,12.0283 -29.74492,14.89455 -20.0743,6.95617 -58.37075,8.60141 -81.96509,3.52125 z"
     style="fill:#ffffff;stroke-width:2.47874" />
  <path
     transform="matrix(0.75,0,0,0.75,-0.00119019,0)"
     inkscape:connector-curvature="0"
     id="path884"
     d="m 1089.9992,1074.1289 v -38.24 h 91.4029 91.403 v 38.24 38.24 h -91.403 -91.4029 z"
     style="fill:#808080;fill-opacity:1;stroke-width:1.86537" />
  <path
     transform="matrix(0.75,0,0,0.75,-0.00119019,0)"
     inkscape:connector-curvature="0"
     id="path886"
     d="m 896.00107,1074.1289 v -38.24 h 92.33564 92.33559 v 38.24 38.24 h -92.33559 -92.33564 z"
     style="fill:#808080;fill-opacity:1;stroke-width:1.86537" />
  <path
     transform="matrix(0.75,0,0,0.75,-0.00119019,0)"
     inkscape:connector-curvature="0"
     id="path888"
     d="m 702.00297,1074.1289 v -38.24 h 92.33564 92.33563 v 38.24 38.24 h -92.33563 -92.33564 z"
     style="fill:#808080;fill-opacity:1;stroke-width:1.86537" />
  <path
     transform="matrix(0.75,0,0,0.75,-0.00119019,0)"
     inkscape:connector-curvature="0"
     id="path894"
     d="m 509.87024,1074.1289 v -38.24 h 91.40295 91.40295 v 38.24 38.24 h -91.40295 -91.40295 z"
     style="fill:#808080;fill-opacity:1;stroke-width:1.86537" />
  <path
     transform="matrix(0.75,0,0,0.75,-0.00119019,0)"
     inkscape:connector-curvature="0"
     id="path904"
     d="m 123.7394,1074.1289 v -38.24 h 91.40295 91.40296 v 38.24 38.24 H 215.14235 123.7394 Z"
     style="fill:#808080;fill-opacity:1;stroke-width:1.86537" />
  <path
     transform="matrix(0.75,0,0,0.75,-0.00119019,0)"
     inkscape:connector-curvature="0"
     id="path906"
     d="m 315.87214,1074.1289 v -38.24 h 92.33563 92.33564 v 38.24 38.24 h -92.33564 -92.33563 z"
     style="fill:#808080;fill-opacity:1;stroke-width:1.86537" />
  <path
     transform="matrix(0.75,0,0,0.75,-0.00119019,0)"
     inkscape:connector-curvature="0"
     id="path908"
     d="m 1282.1319,1074.1289 v -38.24 h 12.0687 12.0686 l -4.6072,6.7891 c -5.0709,7.4725 -5.6382,12.081 -2.5703,20.8817 1.7199,4.9336 1.4296,6.8258 -1.8653,12.157 -2.1463,3.4727 -3.9023,9.0538 -3.9023,12.4025 0,6.812 5.6986,17.2073 11.7603,21.4531 3.7059,2.5957 3.0247,2.7966 -9.4799,2.7966 h -13.4726 z"
     style="fill:#808080;fill-opacity:1;stroke-width:1.86537" />
  <path
     transform="matrix(0.75,0,0,0.75,-0.00119019,0)"
     inkscape:connector-curvature="0"
     id="path910"
     d="m 1367.9862,1108.6856 c -5.2098,-5.2098 -6.5712,-12.5295 -4.0698,-21.8821 1.1864,-4.4356 2.157,-10.9906 2.157,-14.5667 v -6.502 h -9.9857 -9.9857 l 0.9093,-9.4627 c 0.7394,-7.6959 0.1555,-10.4821 -3.1278,-14.9229 l -4.0369,-5.4603 h 20.5749 20.5748 v 38.24 38.24 h -4.6634 c -2.5649,0 -6.3209,-1.6575 -8.3467,-3.6833 z"
     style="fill:#808080;fill-opacity:1;stroke-width:1.86537" />
  <path
     transform="matrix(0.75,0,0,0.75,-0.00119019,0)"
     inkscape:connector-curvature="0"
     id="path912"
     d=""
     style="fill:#808080;fill-opacity:1;stroke-width:1.86537" />
  <path
     transform="matrix(0.75,0,0,0.75,-0.00119019,0)"
     inkscape:connector-curvature="0"
     id="path914"
     d=""
     style="fill:#808080;fill-opacity:1;stroke-width:1.86537" />
  <path
     transform="matrix(0.75,0,0,0.75,-0.00119019,0)"
     inkscape:connector-curvature="0"
     id="path916"
     d="m 1321.2006,1096.507 c -0.8462,-0.3681 -1.9247,-1.2585 -2.3966,-1.9787 -0.9413,-1.4366 -1.225,-5.5904 -0.4015,-5.8773 0.8793,-0.3064 4.9442,2.7122 7.0677,5.2486 1.6283,1.9447 1.8977,2.5174 1.3483,2.8651 -1.0098,0.6392 -3.8562,0.5086 -5.6179,-0.2577 z"
     style="fill:#808080;fill-opacity:1;stroke-width:0.484667" />
  <path
     transform="matrix(0.75,0,0,0.75,-0.00119019,0)"
     inkscape:connector-curvature="0"
     id="path922"
     d=""
     style="fill:#808080;fill-opacity:1;stroke-width:0.484667" />
  <path
     transform="matrix(0.75,0,0,0.75,-0.00119019,0)"
     inkscape:connector-curvature="0"
     id="path924"
     d="m 1403.9209,1106.2797 v -7.4132 l 18.902,-22.4868 c 10.3961,-12.3677 18.902,-22.663 18.902,-22.8785 0,-0.2154 -8.1788,-0.3917 -18.175,-0.3917 h -18.175 v -8.4817 -8.4816 h 29.5647 29.5646 v 7.4243 7.4244 l -17.6903,22.3714 c -9.7297,12.3044 -17.6903,22.5947 -17.6903,22.8674 0,0.3291 6.031,0.4958 17.9326,0.4958 h 17.9327 v 8.4817 8.4817 h -30.534 -30.534 z"
     style="fill:#808080;fill-opacity:1;stroke-width:0.484667" />
  <path
     transform="matrix(0.75,0,0,0.75,-0.00119019,0)"
     inkscape:connector-curvature="0"
     id="path926"
     d="m 1406.3442,990.86717 v -39.05302 l 22.1735,0.004 c 12.9975,0.002 23.4772,0.21236 25.3239,0.50798 5.926,0.94867 10.1134,4.41116 13.1888,10.90553 1.4714,3.10739 1.5934,3.73643 1.5922,8.21184 -9e-4,4.48133 -0.1233,5.10733 -1.6212,8.30481 -1.8583,3.96676 -4.4861,6.76965 -8.2982,8.85092 l -2.6507,1.44718 1.439,0.52603 c 3.6555,1.33622 4.5063,1.74232 6.8479,3.2684 5.5633,3.62588 8.4255,10.32086 7.7676,18.16886 -0.6812,8.1254 -6.1894,13.7184 -16.2521,16.5026 -3.4831,0.9637 -5.1083,1.0381 -26.6102,1.2173 l -22.9005,0.1909 z m 42.166,21.27153 c 3.2321,-1.8784 4.2749,-6.2329 2.4533,-10.2449 -1.658,-3.6518 -2.185,-3.79397 -14.0627,-3.79397 h -10.4429 l -0.1337,7.66807 -0.1336,7.6682 10.3116,-0.1558 c 9.324,-0.1409 10.4742,-0.2502 12.008,-1.1416 z m -2.9551,-30.07056 c 1.2975,-0.51916 2.1565,-1.28185 2.6755,-2.37541 0.9793,-2.06373 0.9792,-5.71152 -2e-4,-7.77537 -1.3186,-2.77889 -2.8133,-3.13987 -13.0006,-3.13987 h -9.0142 v 7.02767 7.02767 h 8.7142 c 6.8061,0 9.1326,-0.16744 10.6253,-0.76469 z"
     style="fill:#808080;fill-opacity:1;stroke-width:0.484667" />
  <path
     transform="matrix(0.75,0,0,0.75,-0.00119019,0)"
     inkscape:connector-curvature="0"
     id="path928"
     d="m 1476.5951,1027.301 c 1.9903,-5.6821 24.4376,-70.11538 25.3309,-72.71031 l 0.9629,-2.79713 9.2268,0.13146 9.2269,0.13146 10.5901,30.53401 c 5.8246,16.79371 11.8955,34.29621 13.4909,38.89451 l 2.9007,8.3605 h -10.0837 -10.0838 l -2.3828,-7.7573 -2.3827,-7.7573 -11.3496,0.1238 -11.3496,0.1238 -0.8589,2.6657 c -0.4725,1.4661 -1.5359,4.9012 -2.3631,7.6335 l -1.5041,4.9678 h -10.1311 -10.1311 z m 43.5367,-26.6567 c -0.117,-0.3332 -1.9285,-6.65835 -4.0255,-14.0559 -2.097,-7.39756 -3.96,-13.28626 -4.14,-13.08601 -0.321,0.35716 -8.2046,26.67121 -8.2042,27.38431 10e-5,0.1999 3.7312,0.3635 8.2913,0.3635 6.4234,0 8.2433,-0.1365 8.0784,-0.6059 z"
     style="fill:#808080;fill-opacity:1;stroke-width:0.484667" />
  <path
     transform="matrix(0.75,0,0,0.75,-0.00119019,0)"
     inkscape:connector-curvature="0"
     id="path930"
     d="m 1477.1056,1074.9195 v -38.7733 h 9.9356 9.9357 v 38.7733 38.7734 h -9.9357 -9.9356 z"
     style="fill:#808080;fill-opacity:1;stroke-width:0.484667" />
  <path
     transform="matrix(0.75,0,0,0.75,-0.00119019,0)"
     inkscape:connector-curvature="0"
     id="path932"
     d="m 1512.9709,1074.9195 v -38.7733 l 11.2685,0.012 11.2685,0.012 8.724,19.1322 c 4.7982,10.5227 8.8331,19.1268 8.9664,19.1201 0.1332,-0.01 4.1681,-8.6142 8.9663,-19.128 l 8.724,-19.1159 11.2685,-0.016 11.2685,-0.016 v 38.7733 38.7734 h -10.178 -10.178 v -20.5984 c 0,-19.3642 -0.051,-20.5983 -0.8558,-20.5983 -0.6536,0 -2.3996,3.4335 -7.3912,14.5347 l -6.5353,14.5346 -5.1059,0.01 -5.1058,0.01 -6.5262,-14.5272 c -4.9256,-10.9646 -6.7342,-14.5304 -7.3743,-14.5401 -0.7947,-0.012 -0.8482,1.2864 -0.8482,20.5856 v 20.5984 h -10.178 -10.178 z"
     style="fill:#808080;fill-opacity:1;stroke-width:0.484667" />
  <path
     transform="matrix(0.75,0,0,0.75,-0.00119019,0)"
     inkscape:connector-curvature="0"
     id="path934"
     d="m 1580.7096,1029.8296 c -6.6282,-1.1161 -12.0304,-3.9018 -16.8868,-8.708 -4.1313,-4.0886 -6.0973,-7.2406 -7.935,-12.7219 -2.3572,-7.0308 -2.6836,-11.27048 -2.6867,-34.89671 v -21.68884 h 9.8854 9.8854 l 0.2234,22.90051 c 0.1901,19.48716 0.3445,23.32854 1.0355,25.77224 1.8035,6.377 5.1745,10.36 9.9411,11.7457 6.7122,1.9512 13.5448,-1.1125 16.4995,-7.3983 2.282,-4.85473 2.4356,-6.77813 2.4432,-30.60431 l 0.01,-22.41584 h 10.178 10.178 l -0.011,19.26551 c -0.017,28.14609 -0.5674,33.11764 -4.6032,41.56014 -4.3139,9.0244 -11.8853,14.8105 -22.1428,16.9215 -3.9248,0.8078 -12.0003,0.9431 -16.0079,0.2683 z"
     style="fill:#808080;fill-opacity:1;stroke-width:0.484667" />
  <path
     transform="matrix(0.75,0,0,0.75,-0.00119019,0)"
     inkscape:connector-curvature="0"
     id="path938"
     d=""
     style="fill:#808080;fill-opacity:1;stroke-width:0.484667" />
  <path
     transform="matrix(0.75,0,0,0.75,-0.00119019,0)"
     inkscape:connector-curvature="0"
     id="path940"
     d=""
     style="fill:#808080;fill-opacity:1;stroke-width:0.484667" />
  <path
     transform="matrix(0.75,0,0,0.75,-0.00119019,0)"
     inkscape:connector-curvature="0"
     id="path942"
     d="m 1665.3986,1030.0197 c -7.8599,-1.6055 -11.7644,-3.1089 -16.5964,-6.3903 -10.897,-7.4 -17.4118,-22.9892 -15.694,-37.55425 1.6062,-13.61909 9.2171,-24.32567 21.6261,-30.42222 6.0437,-2.96929 10.495,-3.94959 17.9343,-3.94959 7.4666,0 11.891,0.98024 18.0216,3.99281 4.13,2.02947 10.6724,7.60127 12.3835,10.54641 l 0.8404,1.44645 -7.3175,5.59847 -7.3175,5.59847 -1.5415,-2.02105 c -3.7279,-4.88763 -9.3961,-7.60274 -15.8719,-7.60274 -4.9712,0 -8.3065,1.25493 -11.7851,4.43417 -7.8229,7.1497 -9.2126,22.08548 -2.9067,31.24127 5.8425,8.4831 17.7184,10.3489 27.2128,4.2754 2.8486,-1.8222 6.4569,-4.9494 6.4569,-5.5959 0,-0.2355 -3.2715,-0.4283 -7.27,-0.4283 h -7.27 v -7.02764 -7.02766 h 15.5094 15.5093 v 20.356 20.356 h -8.2393 -8.2394 v -3.635 c 0,-1.9992 -0.1071,-3.635 -0.2381,-3.635 -0.131,0 -1.276,0.7968 -2.5445,1.7707 -4.952,3.8018 -11.7827,6.0112 -18.3004,5.9193 -1.8659,-0.026 -3.8288,-0.1369 -4.362,-0.2458 z"
     style="fill:#808080;fill-opacity:1;stroke-width:0.484667" />
  <path
     transform="matrix(0.75,0,0,0.75,-0.00119019,0)"
     inkscape:connector-curvature="0"
     id="path944"
     d="m 1719.9236,990.82983 v -39.01568 h 26.8991 26.899 v 8.724 8.72401 h -16.9634 -16.9633 v 6.543 6.543 h 14.54 14.54 v 7.997 7.997 h -14.54 -14.54 v 7.02764 7.0277 h 17.448 17.448 v 8.724 8.724 h -27.3837 -27.3837 z"
     style="fill:#808080;fill-opacity:1;stroke-width:0.484667" />
  <path
     transform="matrix(0.75,0,0,0.75,-0.00119019,0)"
     inkscape:connector-curvature="0"
     id="path946"
     d="m 1608.9349,1074.9195 v -38.7733 h 11.2685 11.2686 l 8.724,19.1328 c 4.7982,10.5231 8.833,19.1332 8.9663,19.1336 0.1333,4e-4 4.1755,-8.5568 8.9827,-19.016 l 8.7405,-19.0166 11.252,-0.1301 11.2521,-0.1301 v 38.7823 38.7823 h -10.178 -10.178 v -20.5984 c 0,-19.2958 -0.054,-20.5981 -0.8481,-20.5944 -0.6424,0 -2.4358,3.5305 -7.3912,14.5387 l -6.543,14.5348 h -5.0966 -5.0966 l -6.5354,-14.5347 c -4.9479,-11.0041 -6.7414,-14.536 -7.3836,-14.54 -0.7945,-0.01 -0.8482,1.2966 -0.8482,20.593 v 20.5984 h -10.178 -10.178 z"
     style="fill:#808080;fill-opacity:1;stroke-width:0.484667" />
  <path
     transform="matrix(0.75,0,0,0.75,-0.00119019,0)"
     inkscape:connector-curvature="0"
     id="path948"
     d="m 1704.899,1074.9195 v -38.7733 h 26.899 26.899 v 8.4816 8.4817 h -16.721 -16.721 v 6.543 6.543 h 14.2976 14.2977 v 7.997 7.997 h -14.2977 -14.2976 v 7.27 7.27 h 17.448 17.448 v 8.4817 8.4817 h -27.626 -27.626 z"
     style="fill:#808080;fill-opacity:1;stroke-width:0.484667" />
  <path
     transform="matrix(0.75,0,0,0.75,-0.00119019,0)"
     inkscape:connector-curvature="0"
     id="path950"
     d="m 1808.6177,1030.5115 c -4.6128,-0.5874 -12.3292,-2.3953 -16.6645,-3.9043 -4.6202,-1.6082 -10.4769,-4.2703 -10.4769,-4.7621 0,-0.1275 1.8909,-4.021 4.2021,-8.6522 l 4.202,-8.4204 5.7835,2.8035 c 7.7627,3.763 12.3275,4.998 18.6099,5.0349 4.2752,0.025 5.1111,-0.106 6.3007,-0.9883 1.4173,-1.0513 1.92,-2.786 1.4035,-4.8438 -0.4834,-1.9259 -3.5461,-3.4823 -12.3856,-6.294 -10.4795,-3.33344 -15.5387,-5.71205 -19.1296,-8.99391 -3.3184,-3.03279 -4.8991,-5.98769 -5.6565,-10.57399 -1.747,-10.57869 3.7069,-21.24917 13.2401,-25.90397 9.1748,-4.47977 18.7943,-4.74391 30.7133,-0.84333 4.6945,1.53632 12.7914,4.97883 12.8062,5.44472 0.013,0.41173 -7.7115,15.13895 -8.1931,15.62056 -0.2205,0.22054 -1.9003,-0.3514 -3.7329,-1.27098 -13.4755,-6.76203 -25.1826,-6.61547 -24.2598,0.30371 0.1361,1.02031 0.6119,2.25786 1.0574,2.75009 1.051,1.16134 5.1103,2.79044 13.8122,5.54316 9.6945,3.06675 14.538,5.511 18.2173,9.19331 3.7376,3.74079 5.0594,6.95136 5.406,13.13103 0.4259,7.5959 -1.3393,12.8329 -5.9574,17.6745 -3.0483,3.1958 -7.6462,5.711 -12.8193,7.0127 -3.1132,0.7833 -13.192,1.3577 -16.4786,0.9391 z"
     style="fill:#808080;fill-opacity:1;stroke-width:0.484667" />
  <path
     transform="matrix(0.75,0,0,0.75,-0.00119019,0)"
     inkscape:connector-curvature="0"
     id="path952"
     d="m 1771.783,1074.9195 v -38.7733 h 19.5779 c 18.1886,0 19.7966,0.068 22.6582,0.9643 6.1481,1.9247 10.6901,5.3518 14.3551,10.8314 3.3217,4.9663 4.7046,9.5175 4.6628,15.3456 -0.055,7.664 -2.6976,13.6416 -8.4619,19.1397 -1.6104,1.5362 -2.8304,3.038 -2.711,3.3375 0.1194,0.2995 3.7235,6.6513 8.0092,14.1152 l 7.7921,13.5706 -11.0097,0.1306 c -9.4514,0.1121 -11.0868,0.025 -11.5549,-0.6151 -0.2998,-0.4101 -3.4625,-5.8626 -7.028,-12.1166 l -6.4828,-11.3709 -4.9678,-0.01 -4.9679,-0.01 v 12.1167 12.1167 h -9.9356 -9.9357 z m 37.7842,-4.1774 c 2.4057,-2.0242 3.1224,-3.8466 3.1224,-7.9392 0,-3.8742 -0.6449,-5.6942 -2.693,-7.6013 -1.9085,-1.7769 -3.5812,-2.0921 -11.1038,-2.0921 h -7.2385 v 9.451 9.451 h 8.2022 c 8.1413,0 8.2133,-0.01 9.7107,-1.2694 z"
     style="fill:#808080;fill-opacity:1;stroke-width:0.484667" />
  <path
     transform="matrix(0.75,0,0,0.75,-0.00119019,0)"
     inkscape:connector-curvature="0"
     id="path954"
     d="m 1882.5294,1029.6515 c -15.6424,-3.5874 -27.7872,-16.9179 -30.6189,-33.60833 -3.1437,-18.52913 8.6644,-36.94088 27.4807,-42.84914 3.1888,-1.00128 4.5808,-1.13755 11.6198,-1.13755 9.2192,0 11.9379,0.54468 18.3119,3.66872 4.288,2.10166 9.2667,6.31078 11.7725,9.95283 l 1.4051,2.04226 -7.4329,5.31078 -7.4328,5.31078 -1.6531,-2.23768 c -1.9018,-2.57426 -5.4352,-5.10427 -8.3514,-5.97973 -1.1082,-0.3327 -4.305,-0.60828 -7.1039,-0.61242 -4.5845,-0.007 -5.3593,0.1252 -7.8151,1.3312 -3.1937,1.5684 -6.6218,5.04579 -8.3644,8.48466 -0.68,1.34187 -1.6081,4.33219 -2.0626,6.64515 -2.086,10.61676 2.4124,21.09727 10.7456,25.03547 5.1866,2.4512 11.9874,2.3289 17.1931,-0.309 2.0229,-1.0251 5.3374,-4.1754 6.5397,-6.2158 0.4272,-0.725 1.4186,-0.2621 8.3605,3.9032 4.3317,2.5992 7.8758,4.9655 7.8758,5.2586 0,1.2738 -4.1399,6.1414 -7.1235,8.3759 -7.0864,5.3069 -14.5433,7.8106 -24.1375,8.1042 -4.262,0.1304 -7.2415,-0.023 -9.2086,-0.4741 z"
     style="fill:#808080;fill-opacity:1;stroke-width:0.484667" />
  <path
     transform="matrix(0.75,0,0,0.75,-0.00119019,0)"
     inkscape:connector-curvature="0"
     id="path956"
     d="m 1933.177,990.82983 v -39.01568 h 9.9357 9.9357 v 14.78234 14.78234 h 14.2977 14.2976 v -14.78234 -14.78234 h 9.9357 9.9357 v 39.01568 39.01567 h -9.9357 -9.9357 v -15.5093 -15.50937 h -14.2976 -14.2977 v 15.50937 15.5093 h -9.9357 -9.9357 z"
     style="fill:#808080;fill-opacity:1;stroke-width:0.484667" />
  <path
     transform="matrix(0.75,0,0,0.75,-0.00119019,0)"
     inkscape:connector-curvature="0"
     id="path958"
     d="m 1847.8757,1074.9195 v -38.7733 h 26.899 26.899 v 8.4816 8.4817 h -16.9633 -16.9634 v 6.543 6.543 h 14.54 14.54 v 7.997 7.997 h -14.54 -14.54 v 7.27 7.27 h 17.448 17.448 v 8.4817 8.4817 h -27.3836 -27.3837 z"
     style="fill:#808080;fill-opacity:1;stroke-width:0.484667" />
  <path
     transform="matrix(0.75,0,0,0.75,-0.00119019,0)"
     inkscape:connector-curvature="0"
     id="path960"
     d="m 1914.275,1074.9195 v -38.7733 h 10.178 10.178 v 38.7733 38.7734 h -10.178 -10.178 z"
     style="fill:#808080;fill-opacity:1;stroke-width:0.484667" />
  <path
     transform="matrix(0.75,0,0,0.75,-0.00119019,0)"
     inkscape:connector-curvature="0"
     id="path962"
     d="m 2010.8909,1028.765 c 0.157,-0.6053 6.2185,-18.1714 13.4701,-39.03585 l 13.1846,-37.93535 9.2432,0.13134 9.2432,0.13134 13.1975,38.04635 c 7.2586,20.92547 13.3274,38.42797 13.4862,38.89447 0.2689,0.79 -0.4062,0.8482 -9.8298,0.8482 h -10.1184 l -2.353,-7.7632 -2.3529,-7.7633 -11.4012,0.1298 -11.4011,0.1297 -2.2408,7.5123 -2.2408,7.5124 -10.0861,0.1312 -10.0862,0.1311 z m 43.8239,-28.363 c -2.9308,-10.9669 -7.8848,-27.18766 -8.1533,-26.69646 -0.3704,0.67748 -8.2118,26.67616 -8.2118,27.22676 0,0.1748 3.7332,0.3179 8.2959,0.3179 7.6641,0 8.2786,-0.065 8.0692,-0.8482 z"
     style="fill:#808080;fill-opacity:1;stroke-width:0.484667" />
  <path
     transform="matrix(0.75,0,0,0.75,-0.00119019,0)"
     inkscape:connector-curvature="0"
     id="path964"
     d="m 2026.2331,937.03181 v -7.02767 h 7.7546 7.7547 v 7.02767 7.02767 h -7.7547 -7.7546 z"
     style="fill:#808080;fill-opacity:1;stroke-width:0.484667" />
  <path
     transform="matrix(0.75,0,0,0.75,-0.00119019,0)"
     inkscape:connector-curvature="0"
     id="path966"
     d="m 2051.9204,937.03181 v -7.02767 h 7.7547 7.7546 v 7.02767 7.02767 h -7.7546 -7.7547 z"
     style="fill:#808080;fill-opacity:1;stroke-width:0.484667" />
  <path
     transform="matrix(0.75,0,0,0.75,-0.00119019,0)"
     inkscape:connector-curvature="0"
     id="path968"
     d="m 2091.6631,990.82983 v -39.01568 h 26.4143 26.4144 v 8.724 8.72401 h -16.4787 -16.4787 v 7.51233 7.51234 h 13.3284 13.3283 v 7.997 7.99697 h -13.3283 -13.3284 v 14.7824 14.7823 h -9.9356 -9.9357 z"
     style="fill:#808080;fill-opacity:1;stroke-width:0.484667" />
  <path
     transform="matrix(0.75,0,0,0.75,-0.00119019,0)"
     inkscape:connector-curvature="0"
     id="path970"
     d="m 2171.6331,999.55383 v -30.29167 h -11.3897 -11.3896 v -8.72401 -8.724 h 32.9573 32.9574 v 8.724 8.72401 h -11.632 -11.632 v 30.29167 30.29167 h -9.9357 -9.9357 z"
     style="fill:#808080;fill-opacity:1;stroke-width:0.484667" />
  <path
     transform="matrix(0.75,0,0,0.75,-0.00119019,0)"
     inkscape:connector-curvature="0"
     id="path1171"
     d="m 424.77358,990.40474 v -38.58469 h 91.26763 91.26764 v 38.58469 38.58466 h -91.26764 -91.26763 z"
     style="fill:#808080;fill-opacity:1;stroke-width:1.48403" />
  <path
     transform="matrix(0.75,0,0,0.75,-0.00119019,0)"
     inkscape:connector-curvature="0"
     id="path1173"
     d="m 617.69704,990.40474 v -38.58469 h 92.00965 92.00965 v 38.58469 38.58466 h -92.00965 -92.00965 z"
     style="fill:#808080;fill-opacity:1;stroke-width:1.48403" />
  <path
     transform="matrix(0.75,0,0,0.75,-0.00119019,0)"
     inkscape:connector-curvature="0"
     id="path1175"
     d="m 810.6205,990.40474 v -38.58469 h 92.00965 92.00965 v 38.58469 38.58466 H 902.63015 810.6205 Z"
     style="fill:#808080;fill-opacity:1;stroke-width:1.48403" />
  <path
     transform="matrix(0.75,0,0,0.75,-0.00119019,0)"
     inkscape:connector-curvature="0"
     id="path1177"
     d="m 1003.544,990.40474 v -38.58469 h 92.0096 92.0097 v 38.58469 38.58466 h -92.0097 -92.0096 z"
     style="fill:#808080;fill-opacity:1;stroke-width:1.48403" />
  <path
     transform="matrix(0.75,0,0,0.75,-0.00119019,0)"
     inkscape:connector-curvature="0"
     id="path1179"
     d="m 1197.9514,990.40474 v -38.58469 h 92.0097 92.0096 v 38.58469 38.58466 h -92.0096 -92.0097 z"
     style="fill:#808080;fill-opacity:1;stroke-width:1.48403" />
  <path
     transform="matrix(0.75,0,0,0.75,-0.00119019,0)"
     inkscape:connector-curvature="0"
     id="path1181"
     d="m 230.36609,990.40474 v -38.58469 h 92.00965 92.00965 v 38.58469 38.58466 h -92.00965 -92.00965 z"
     style="fill:#808080;fill-opacity:1;stroke-width:1.48403" />
  <path
     transform="matrix(0.75,0,0,0.75,-0.00119019,0)"
     inkscape:connector-curvature="0"
     id="path1183"
     d="m 2155.5196,700.74682 -31.5355,-8.97874 v -11.69855 -11.69857 h -29.6806 -29.6805 v 3.59908 3.59906 l -25.5995,-6.64473 c -40.5292,-10.51995 -123.0655,-32.53025 -164.3559,-43.82945 -20.8135,-5.69565 -45.8564,-12.36508 -55.651,-14.821 -9.7946,-2.4559 -41.5157,-11.02684 -70.4913,-19.04652 -28.9756,-8.01968 -70.7138,-19.37322 -92.7516,-25.23008 -41.6354,-11.06523 -187.0852,-50.40099 -200.7146,-54.28173 l -7.7912,-2.21839 v -9.60471 -9.60472 h -29.6805 c -17.7119,0 -29.6805,0.5673 -29.6805,1.40683 0,0.86243 -1.5793,0.90073 -4.0811,0.099 -2.2446,-0.71934 -27.1206,-7.33618 -55.28,-14.70409 -28.1594,-7.36795 -64.5552,-17.14497 -80.8795,-21.72676 C 1175.6366,435.14594 929.74336,368.3519 820.26667,339.2646 l -26.71248,-7.09735 -0.44506,-8.49731 -0.44507,-8.49731 h -28.86445 -28.86447 l -0.009,10.01718 c -0.009,9.73014 -0.14737,10.09721 -4.82309,12.81017 -2.64802,1.53615 -27.18588,15.46619 -54.52907,30.95566 -27.34319,15.48946 -56.72692,32.35275 -65.29717,37.47397 -8.57026,5.12123 -50.0511,28.71385 -92.17965,52.42806 -42.12855,23.71423 -89.87711,50.75107 -106.1079,60.08191 -16.2308,9.33083 -56.55693,32.00267 -89.61362,50.38185 -33.05669,18.3792 -80.80525,45.30159 -106.1079,59.82756 l -46.00483,26.41082 -28.51889,0.62599 -28.51889,0.62599 -0.41963,15.7419 -0.41963,15.74189 -14.09825,8.35099 c -12.79966,7.58177 -15.157631,8.44686 -25.599459,9.39191 l -11.501207,1.04095 V 679.77537 652.4713 L 95.690673,631.70202 C 114.66766,620.2789 160.91364,593.56011 198.45952,572.32694 482.2025,411.86281 615.09941,336.57869 668.50906,306.0509 c 34.06822,-19.47266 66.21778,-37.67306 71.44346,-40.44534 l 9.50124,-5.04051 21.3082,5.08743 c 43.57616,10.40399 118.95556,30.37442 301.78924,79.95367 43.2594,11.7307 156.4535,42.39836 251.5425,68.15035 95.089,25.75199 187.2471,50.76281 204.7957,55.57959 81.9788,22.50172 149.6844,40.83166 254.5106,68.9037 13.8756,3.71584 74.3126,20.20069 134.3044,36.633 59.9917,16.43232 136.1223,37.24889 169.179,46.25907 33.0567,9.01016 74.7949,20.55778 92.7517,25.66136 l 32.6485,9.27923 0.4046,26.92563 0.4044,26.92563 -13.0186,-0.0991 c -11.2865,-0.0859 -17.2152,-1.29385 -44.5544,-9.07782 z"
     style="fill:#808080;fill-opacity:1;stroke-width:1.48403" />
  <path
     transform="matrix(0.75,0,0,0.75,-0.00119019,0)"
     inkscape:connector-curvature="0"
     id="path1185"
     d="m 118.12642,700.65278 v -38.42464 h 23.73286 23.73287 v 38.42464 38.42463 h -23.73287 -23.73286 z"
     style="fill:#808080;fill-opacity:1;stroke-width:2.26027" />
  <path
     transform="matrix(0.75,0,0,0.75,-0.00119019,0)"
     inkscape:connector-curvature="0"
     id="path1187"
     d="m 739.70146,359.35157 v -38.42464 h 23.73287 23.73286 v 38.42464 38.42464 h -23.73286 -23.73287 z"
     style="fill:#808080;fill-opacity:1;stroke-width:2.26027" />
  <path
     transform="matrix(0.75,0,0,0.75,-0.00119019,0)"
     inkscape:connector-curvature="0"
     id="path1191"
     d="m 1392.9203,534.52272 v -37.29451 h 23.7329 23.7329 v 37.29451 37.2945 h -23.7329 -23.7329 z"
     style="fill:#808080;fill-opacity:1;stroke-width:2.26027" />
  <path
     transform="matrix(0.75,0,0,0.75,-0.00119019,0)"
     inkscape:connector-curvature="0"
     id="path1193"
     d="M 2071.0022,711.95414 V 673.5295 h 23.7329 23.7328 v 38.42464 38.42464 h -23.7328 -23.7329 z"
     style="fill:#808080;fill-opacity:1;stroke-width:2.26027" />
  <path
     transform="matrix(0.75,0,0,0.75,-0.00119019,0)"
     inkscape:connector-curvature="0"
     id="path1195"
     d="m 122.64696,989.96771 v -38.42464 h 48.59587 48.59587 v 38.42464 38.42459 h -48.59587 -48.59587 z"
     style="fill:#af252a;fill-opacity:1;stroke-width:2.26027" />
  <path
     transform="matrix(0.75,0,0,0.75,-0.00119019,0)"
     inkscape:connector-curvature="0"
     id="path1758"
     d="M 355.62501,931.00338 C 279.01377,915.97254 225.90505,855.17832 217.45543,772.83889 c -4.13455,-40.29018 3.93243,-79.7874 22.89855,-112.11492 11.40201,-19.43459 44.91402,-51.91008 65.37509,-63.35305 68.60473,-38.36758 156.99616,-30.37798 210.34407,19.01277 7.56115,7.0003 16.68149,16.99212 20.26737,22.20404 l 6.51982,9.47622 -4.98693,4.46472 c -11.22033,10.04542 -62.40313,48.12411 -64.68514,48.12411 -1.3526,0 -2.45927,-0.78155 -2.45927,-1.73677 0,-0.95523 -5.3399,-7.20449 -11.86643,-13.88725 -17.35675,-17.77222 -35.80071,-25.94795 -60.82547,-26.96236 -17.45868,-0.70771 -21.07164,-0.12209 -33.41141,5.41567 -17.90185,8.03388 -36.26046,27.38779 -42.95701,45.28592 -20.37884,54.46734 -3.21188,111.72317 39.93986,133.20876 11.77055,5.86063 15.28872,6.50144 35.66159,6.49552 18.01189,-0.005 25.12769,-1.01741 35.03423,-4.9834 13.12504,-5.25448 42.94518,-25.95447 42.94518,-29.8109 0,-1.41005 -11.5747,-2.27182 -30.51368,-2.27182 h -30.51368 v -33.9041 -33.90409 h 71.19859 71.1986 v 93.80133 93.80132 h -38.42464 -38.42464 v -11.1165 c 0,-17.5665 -1.42397,-19.44126 -9.87287,-12.99819 -11.60542,8.85023 -34.33198,19.41081 -49.43609,22.97197 -15.31487,3.61085 -48.7647,4.09864 -64.83611,0.94549 z"
     style="fill:#af252a;fill-opacity:1;stroke-width:2.26027" />
  <path
     transform="matrix(0.75,0,0,0.75,-0.00119019,0)"
     inkscape:connector-curvature="0"
     id="path1760"
     d="M 601.82482,795.41601 V 659.63142 l 71.76366,0.73329 71.76367,0.73329 15.19655,7.19892 c 21.11923,10.00462 36.15466,24.76332 46.45055,45.59563 8.12088,16.43149 8.42136,17.89462 8.42136,41.00678 0,23.12238 -0.2976,24.56945 -8.44149,41.0475 -5.2059,10.53341 -12.35332,20.68598 -18.64725,26.48753 -5.61317,5.17404 -10.20577,9.825 -10.20577,10.33546 0,0.51047 12.66204,22.86622 28.13785,49.67946 l 28.13784,48.75133 h -40.17676 -40.17677 l -23.66793,-41.24998 -23.66794,-41.24998 -16.27942,-0.66409 -16.27942,-0.66409 v 41.91407 41.91407 H 637.98918 601.82482 Z M 736.264,778.88473 c 6.36711,-6.36712 8.97311,-17.93505 7.32813,-32.52931 -0.90952,-8.06919 -2.82664,-11.98772 -8.22465,-16.81084 -6.8687,-6.13718 -7.69293,-6.28908 -34.12632,-6.28908 h -27.08761 v 30.51369 30.51368 h 28.35615 c 26.87912,0 28.63733,-0.28118 33.7543,-5.39814 z"
     style="fill:#af252a;fill-opacity:1;stroke-width:2.26027" />
  <path
     transform="matrix(0.75,0,0,0.75,-0.00119019,0)"
     inkscape:connector-curvature="0"
     id="path1762"
     d="M 864.01647,795.58424 V 659.96786 h 93.80133 93.8013 v 31.64382 31.64382 h -57.63694 -57.63695 v 20.34246 20.34246 h 49.726 49.72599 v 29.38354 29.38355 h -49.72599 -49.726 v 23.73287 23.73286 h 59.89723 59.89726 v 30.51369 30.51368 h -96.06163 -96.0616 z"
     style="fill:#af252a;fill-opacity:1;stroke-width:2.26027" />
  <path
     transform="matrix(0.75,0,0,0.75,-0.00119019,0)"
     inkscape:connector-curvature="0"
     id="path1764"
     d="M 1094.5643,795.58424 V 659.96786 h 36.1644 36.1643 v 135.61638 135.61637 h -36.1643 -36.1644 z"
     style="fill:#af252a;fill-opacity:1;stroke-width:2.26027" />
  <path
     transform="matrix(0.75,0,0,0.75,-0.00119019,0)"
     inkscape:connector-curvature="0"
     id="path1766"
     d="M 1216.619,795.58424 V 659.96786 h 36.1644 36.1644 v 105.10269 105.10269 h 62.1575 62.1575 v 30.51369 30.51368 h -98.3219 -98.3219 z"
     style="fill:#af252a;fill-opacity:1;stroke-width:2.26027" />
  <path
     transform="matrix(0.75,0,0,0.75,-0.00119019,0)"
     inkscape:connector-curvature="0"
     id="path1768"
     d="m 1486.0755,928.37527 c 0.5322,-1.55394 21.6893,-62.60737 47.0157,-135.67429 l 46.0481,-132.84894 32.8857,0.62298 32.8857,0.62298 31.7177,91.54105 c 17.4447,50.34758 38.5173,111.14567 46.828,135.10689 l 15.1103,43.56581 -36.3934,-0.62063 -36.3934,-0.62064 -8.011,-26.55821 -8.011,-26.55821 h -37.9108 -37.9108 l -7.0274,23.1678 c -3.8651,12.74229 -7.5373,24.94776 -8.1604,27.12327 -1.0184,3.55564 -4.7977,3.95548 -37.3868,3.95548 -28.0123,0 -36.0339,-0.64228 -35.2862,-2.82534 z m 151.0194,-99.45201 c 0.1081,-4.6865 -23.6928,-87.5719 -25.1486,-87.57899 -1.4077,-0.007 -26.9028,83.17935 -26.9028,87.77927 0,3.88228 51.9619,3.68234 52.0514,-0.20028 z"
     style="fill:#af252a;fill-opacity:1;stroke-width:2.26027" />
  <path
     transform="matrix(0.75,0,0,0.75,-0.00119019,0)"
     inkscape:connector-curvature="0"
     id="path1772"
     d="m 1839.0364,928.98839 c -60.8946,-15.96514 -98.034,-66.46136 -98.034,-133.29083 0,-40.03726 11.0904,-67.54698 38.4246,-95.31192 13.5548,-13.76839 20.8023,-19.04441 36.1644,-26.32692 24.2081,-11.47604 38.3312,-14.71216 64.208,-14.71243 37.8326,-4e-4 67.1337,11.70121 92.2887,36.85618 8.4062,8.40621 15.228,16.66065 15.1595,18.34319 -0.1325,3.2549 -47.6931,40.35367 -51.7334,40.35367 -1.3138,0 -2.3886,-0.84761 -2.3886,-1.88356 0,-4.31193 -17.806,-19.4753 -28.9299,-24.63636 -8.8706,-4.11563 -15.9323,-5.582 -27.2219,-5.65268 -19.1726,-0.12002 -32.2698,5.38282 -44.12,18.53723 -12.5034,13.87959 -17.6102,27.01263 -18.9682,48.78063 -3.1645,50.72201 26.2645,83.55464 71.1369,79.36439 7.8747,-0.73536 18.7383,-3.29243 24.1412,-5.68239 9.9171,-4.38682 28.4824,-19.50888 28.4824,-23.1999 0,-1.0985 -10.6798,-1.99727 -23.7329,-1.99727 h -23.7328 v -24.863 -24.863 h 54.2465 54.2466 v 71.1986 71.19859 h -28.2534 -28.2535 v -11.30136 c 0,-12.40137 -1.2685,-13.36775 -9.3013,-7.086 -24.227,18.94569 -59.8428,25.0855 -93.8289,16.17514 z"
     style="fill:#808080;fill-opacity:1;stroke-width:2.26027" />
  <path
     transform="matrix(0.75,0,0,0.75,-0.00119019,0)"
     inkscape:connector-curvature="0"
     id="path1774"
     d="m 122.64696,989.96771 v -38.42464 h 48.59587 48.59587 v 38.42464 38.42459 h -48.59587 -48.59587 z"
     style="fill:#808080;fill-opacity:1;stroke-width:2.26027" />
  <path
     transform="matrix(0.75,0,0,0.75,-0.00119019,0)"
     inkscape:connector-curvature="0"
     id="path1776"
     d="m 1837.064,926.97476 c -45.6348,-13.13625 -78.7906,-47.93674 -90.6404,-95.13638 -5.2831,-21.04373 -3.495,-66.40084 3.3099,-83.95784 11.5976,-29.92255 36.9719,-57.50349 66.1229,-71.87334 50.0397,-24.66677 103.6365,-20.19657 144.7337,12.07141 7.025,5.51579 15.6409,13.78904 19.1464,18.385 l 6.3737,8.35629 -7.8451,6.70548 c -10.6923,9.13916 -39.6357,31.11367 -40.9809,31.11367 -0.5993,0 -5.9927,-4.69797 -11.9854,-10.43993 -15.3934,-14.74947 -27.8378,-19.83808 -48.6801,-19.90555 -21.8333,-0.0707 -35.1826,6.03457 -47.6322,21.78447 -12.3826,15.66521 -16.3946,31.0029 -15.1796,58.03174 0.7539,16.77358 2.1913,24.25059 6.304,32.7917 6.415,13.32265 16.5461,23.87966 28.4728,29.66971 12.1149,5.88142 37.6707,7.07914 53.2091,2.49374 13.269,-3.91569 34.2563,-18.52168 35.4391,-24.66364 0.6661,-3.45853 -1.8056,-3.87187 -23.1529,-3.87187 h -23.8986 v -24.863 -24.863 h 54.2465 54.2466 v 71.1986 71.19859 h -28.2534 -28.2535 v -11.30136 c 0,-13.43509 -1.7113,-13.91897 -15.8219,-4.47356 -22.7262,15.21261 -59.8646,20.01671 -89.2807,11.54907 z"
     style="fill:#af252a;fill-opacity:1;stroke-width:2.26027" />
  <path
     transform="matrix(0.75,0,0,0.75,-0.00119019,0)"
     inkscape:connector-curvature="0"
     id="path1778"
     d="m 1322.2409,1054.5467 c -0.8942,-1.0774 -0.4374,-2.2306 0.8836,-2.2306 0.9651,0 1.0237,0.3421 0.3514,2.0506 -0.3984,1.0123 -0.5285,1.0313 -1.235,0.18 z"
     style="fill:#af252a;fill-opacity:1;stroke-width:0.612678" />
</svg>
